<?xml version="1.0" encoding="utf-8"?>
<!-- Generator: Adobe Illustrator 25.2.3, SVG Export Plug-In . SVG Version: 6.00 Build 0)  -->
<svg version="1.1" id="Layer_1" xmlns="http://www.w3.org/2000/svg" xmlns:xlink="http://www.w3.org/1999/xlink" x="0px" y="0px"
	 viewBox="0 0 60 60" style="enable-background:new 0 0 60 60;" xml:space="preserve">
<g id="Icons">
	<g id="map" transform="translate(-630.000000, -210.000000)">
		<g transform="translate(630.000000, 210.000000)">
			<path id="Shape" d="M30.3,0c12.3,0,22.3,10,22.3,22.3c0,16.5-19.4,36.1-20.2,36.9C31.8,59.7,31,60,30.3,60s-1.5-0.3-2.1-0.8
				l-0.1-0.1C26.6,57.5,8,38.4,8,22.3C8,10,18,0,30.3,0z M30.3,5.8c-9.1,0-16.5,7.4-16.5,16.5c0,11.2,11.6,25.3,16.5,30.6
				c4.8-5.3,16.5-19.4,16.5-30.6C46.7,13.2,39.3,5.8,30.3,5.8z M30.3,9.6c7,0,12.7,5.7,12.7,12.7S37.3,35,30.3,35
				s-12.7-5.7-12.7-12.7S23.3,9.6,30.3,9.6z M30.3,15.4c-3.8,0-6.9,3.1-6.9,6.9s3.1,6.9,6.9,6.9s6.9-3.1,6.9-6.9
				S34.1,15.4,30.3,15.4z"/>
		</g>
	</g>
</g>
</svg>
