<?xml version="1.0" encoding="utf-8"?>
<!-- Generator: Adobe Illustrator 25.2.3, SVG Export Plug-In . SVG Version: 6.00 Build 0)  -->
<svg version="1.1" id="Layer_1" xmlns="http://www.w3.org/2000/svg" xmlns:xlink="http://www.w3.org/1999/xlink" x="0px" y="0px"
	 viewBox="0 0 60 60" style="enable-background:new 0 0 60 60;" xml:space="preserve">
<path d="M57.1,2.9C55.2,1,52.7,0,50,0H10C4.5,0,0,4.5,0,10v28c0,5.5,4.5,10,10,10h18v8h-6v4h16v-4h-6v-8h18c5.5,0,10-4.5,10-10
	c0,0,0,0,0,0V10C60,7.3,59,4.8,57.1,2.9z M50,4c3.3,0,6,2.7,6,6v28c0,3.3-2.7,6-6,6H10c-3.3,0-6-2.7-6-6V10c0-3.3,2.7-6,6-6H50z
	 M30.5,14c-2.3,0-4.7,0.6-6.7,1.8c-0.2,0.1-0.2,0.2-0.2,0.4l0.2,2.9c0,0.4,0.5,0.5,0.8,0.3c2.9-1.8,6.4-2.1,8.1-1.2
	c1.2,0.6,1.5,1.9,1.5,2.8v0.5h-4.8c-2.1,0-8.4,0.8-8.4,6.6c0.1,2,0.8,3.5,2.1,4.6c1.2,1,3,1.5,5.1,1.5h9.7c0.3,0,0.5-0.2,0.5-0.5
	c0,0,0,0,0,0V22c0-2.6-0.6-4.7-1.8-6C35.3,14.7,32.8,14,30.5,14L30.5,14z M34.2,24.7v5.7h-5.8c-0.7,0-1.5-0.3-2.1-0.7
	c-0.7-0.5-0.9-1.1-1-1.9c0.1-1,0.8-3.1,4.3-3.1H34.2z"/>
</svg>
