<svg xmlns="http://www.w3.org/2000/svg" xml:space="preserve" style="enable-background:new 0 0 60 60" viewBox="0 0 60 60"><path class="svg__ico" d="M45.1 4.7h-8.8C35.3 2 32.7 0 29.6 0S24 2 23 4.7h-9c-3.9 0-7 3.2-7 7V53c0 3.9 3.2 7 7 7h31.1c3.9 0 7-3.2 7-7V11.7c0-3.9-3.1-7-7-7zM27.3 9.4V7c0-1.3 1.1-2.3 2.3-2.3S32 5.7 32 7v2.3h4.7v4.6H22.6V9.4h4.7zM47.4 53c0 1.3-1.1 2.3-2.3 2.3H14c-1.3 0-2.3-1.1-2.3-2.3V11.7c0-1.3 1.1-2.3 2.3-2.3h3.9v9.3h23.4V9.4h3.8c1.3 0 2.3 1.1 2.3 2.3V53zm-8.9-26 3.5 3.2-15 16.4-9.9-9.6 3.3-3.4 6.4 6.2L38.5 27z"/></svg>