<svg xmlns="http://www.w3.org/2000/svg" xml:space="preserve" style="enable-background:new 0 0 60 60" viewBox="0 0 60 60"><path class="svg__ico" d="M53.8 33.5C55.2 32 56 30.1 56 28v-2c0-4.4-3.6-8-8-8s-8 3.6-8 8v2c0 2.1.8 4 2.2 5.5h-.1c-1.5-1.8-3.4-3.2-5.5-4.1 2.1-1.9 3.4-4.5 3.4-7.4v-4c0-5.5-4.5-10-10-10s-10 4.5-10 10v4c0 2.9 1.2 5.6 3.4 7.4-2.1 1-4 2.4-5.5 4.1h-.1C19.2 32 20 30 20 27.9v-2c0-4.4-3.6-8-8-8s-8 3.6-8 8v2c0 2.1.8 4 2.2 5.5C2.4 35.6 0 39.6 0 44v6c0 1.1.9 2 2 2h56c1.1 0 2-.9 2-2v-6c0-4.4-2.4-8.4-6.2-10.5zM44 28v-2c0-2.2 1.8-4 4-4s4 1.8 4 4v2c0 2.2-1.8 4-4 4s-4-1.8-4-4zm-20-6v-4c0-3.3 2.7-6 6-6s6 2.7 6 6v4c0 3.3-2.7 6-6 6s-6-2.7-6-6zM8 28v-2c0-2.2 1.8-4 4-4s4 1.8 4 4v2c0 2.2-1.8 4-4 4s-4-1.8-4-4zM4 44c0-4.4 3.6-8 8-8 1.3 0 2.5.3 3.7.9-1.1 2.2-1.7 4.6-1.7 7.1v4H4v-4zm38 4H18v-4c0-6.6 5.4-12 12-12s12 5.4 12 12v4zm14 0H46v-4c0-2.5-.6-4.9-1.7-7.1 1.1-.6 2.4-.9 3.7-.9 4.4 0 8 3.6 8 8v4z"/></svg>