<svg xmlns="http://www.w3.org/2000/svg" xml:space="preserve" style="enable-background:new 0 0 60 60" viewBox="0 0 60 60"><path class="svg__ico" d="M6.7 26.7c-.9-.9-.9-2.4 0-3.3L20.4 9.6c.9-.9 2.4-.9 3.3 0l8.6 8.6L46 4.7h-6c-1.3 0-2.3-1-2.3-2.3S38.7.1 40 .1h11.7c1.2-.1 2.3 1 2.3 2.2V14c0 1.3-1 2.3-2.3 2.3-1.3 0-2.3-1-2.3-2.3V8L34 23.2c-.9.9-2.4.9-3.3 0l-8.6-8.6L10 26.7c-.9.9-2.4.9-3.3 0zm10 17.1v13.8c0 1.3-1 2.3-2.3 2.3H2.3C1 60 0 59 0 57.7V43.8c0-1.3 1-2.3 2.3-2.3h12.1c1.3 0 2.3 1 2.3 2.3zm-4.6 2.4H4.7v9.1h7.4v-9.1zm26.3-11.3v22.7c0 1.3-1 2.3-2.3 2.3H24c-1.3 0-2.3-1-2.3-2.3V34.9c0-1.3 1-2.3 2.3-2.3h12c1.3 0 2.4 1 2.4 2.3zm-4.7 2.4h-7.4v18.1h7.4V37.3zM60 26v31.7c0 1.3-1 2.3-2.3 2.3H45.6c-1.3 0-2.3-1-2.3-2.3V26c0-1.3 1-2.3 2.3-2.3h12.1c1.3 0 2.3 1 2.3 2.3zm-4.7 2.3h-7.4v27h7.4v-27z"/></svg>