<?xml version="1.0" encoding="utf-8"?>
<!-- Generator: Adobe Illustrator 25.2.3, SVG Export Plug-In . SVG Version: 6.00 Build 0)  -->
<svg version="1.1" id="Layer_1" xmlns="http://www.w3.org/2000/svg" xmlns:xlink="http://www.w3.org/1999/xlink" x="0px" y="0px"
	 viewBox="0 0 60 60" style="enable-background:new 0 0 60 60;" xml:space="preserve">
<style type="text/css">
	.st0{fill-rule:evenodd;clip-rule:evenodd;}
</style>
<g id="Icons">
	<g id="close" transform="translate(-390.000000, -210.000000)">
		<g transform="translate(390.000000, 210.000000)">
			<path id="Path" class="st0" d="M56,3.4c1.9,1.9,1.9,5,0,6.9L36.4,29.9L56,49.6c1.9,1.9,1.9,5,0,6.9c-1.9,1.9-5,1.9-6.9,0
				L29.5,36.8L11.3,55c-1.9,1.9-5,1.9-6.9,0s-1.9-5,0-6.9l18.2-18.2L4.4,11.8c-1.9-1.9-1.9-5,0-6.9s5-1.9,6.9,0L29.5,23L49.2,3.4
				C51.1,1.5,54.1,1.5,56,3.4z"/>
		</g>
	</g>
</g>
</svg>
