<svg xmlns="http://www.w3.org/2000/svg" xml:space="preserve" style="enable-background:new 0 0 60 60" viewBox="0 0 60 60"><path class="svg__ico" d="M39.2 20.8c0-.6-.4-1.1-.9-1.4l-10.8-6.3c-.5-.3-1.2-.3-1.8 0L15 19.4c-.5.3-.9.9-.9 1.5v12.5c0 .6.3 1.2.9 1.5l10.8 6.3c.5.3 1.2.3 1.8 0L38.4 35c.5-.3.9-.9.9-1.5-.1-.3-.1-12.5-.1-12.7zm-12.6-4.1 7.3 4.2-7.3 4.2-7.3-4.2 7.3-4.2zm-9 7.2 7.3 4.2v8.4l-7.3-4.2v-8.4zm18.1 8.5-7.3 4.2v-8.4l7.3-4.2v8.4zm23.2-10.6c-.7-.3-1.4-.1-1.9.4l-.5.5V7.6c0-1-.8-1.8-1.8-1.8H10.5v-4c0-1-.8-1.8-1.8-1.8H5.3C2.4 0 0 2.4 0 5.3v45.9c0 2.9 2.4 5.3 5.3 5.3h19.4l-.6.5c-.5.5-.6 1.3-.3 1.9.3.6.9 1.1 1.6 1.1h32.8c1 0 1.8-.8 1.8-1.8V23.4c0-.7-.4-1.4-1.1-1.6zM3.5 5.3c0-1 .8-1.8 1.8-1.8H7v42.4H5.3c-.6 0-1.2.1-1.7.3V5.3zM5.3 53c-1 0-1.8-.8-1.8-1.8 0-.9.8-1.8 1.8-1.8h3.5c1 0 1.8-.8 1.8-1.8V9.4H53v17.1L28 53H5.3zm51.2 3.5h-27l27-28.7v28.7zm-16.4-4.6c.3.6.9 1.1 1.6 1.1h9.5c1 0 1.8-.8 1.8-1.8V41.1c0-.7-.4-1.4-1.1-1.6-.7-.3-1.4-.1-1.9.4L40.4 50c-.5.5-.6 1.3-.3 1.9zm9.4-6.4v3.9h-3.7l3.7-3.9z"/></svg>