<svg xmlns="http://www.w3.org/2000/svg" xml:space="preserve" style="enable-background:new 0 0 150 150" viewBox="0 0 150 150"><path class="svg__ico" d="M85.8 58.6v-19c3.9.9 7.7 2.2 11.4 3.9 3.7 1.6 7.2 3.6 10.5 5.9l13.4-21.9c-2.6-1.8-5.2-3.4-8-4.8s-5.6-2.7-8.5-3.8a70.094 70.094 0 0 0-18.1-4.2V4.8H69.6v9.3C44.5 16 30.4 29.4 30.4 48.7v.3c0 20.3 13.4 29.3 39.8 35.4v19.7c-10.2-1.6-20-6.1-30.5-13.4L25 112.4c3.3 2.3 6.7 4.3 10.2 6.2 3.5 1.8 7.2 3.4 10.9 4.8s7.5 2.5 11.4 3.4c3.9.9 7.8 1.5 11.8 1.9v16.5h17v-16.1c23.3-2.1 38.7-14.4 38.7-34.4v-.3c0-20.4-13.2-29.7-39.2-35.8zm-15.4-2.8c-8.8-2.5-11.2-4.9-11.2-9.2v-.3c0-4.3 3.1-7.5 11.2-8.2v17.7zm26.2 40.9c0 4.7-3.4 7.5-11 8.4v-18c8.5 2.5 11 4.9 11 9.3v.3z"/></svg>