<svg xmlns="http://www.w3.org/2000/svg" xml:space="preserve" style="enable-background:new 0 0 60 60" viewBox="0 0 60 60"><path class="svg__ico" d="M58.5 41.2 39.6 8.5c-4.3-7.4-15.1-7.3-19.3 0L1.5 41.2c-4.2 7.3 1.1 16.5 9.5 16.5 3.8 0 7.5-1.9 9.5-5.5L30 35.8l9.5 16.4c2.1 3.6 5.8 5.5 9.5 5.5 8.4 0 13.8-9.1 9.5-16.5zm-41.3 9.1c-1.7 2.9-5.1 4.2-8.2 3.3-4.5-1.3-6.5-6.4-4.2-10.4 2-3.4 6.3-4.6 9.8-2.6 3.4 1.9 4.6 6.3 2.6 9.7zm4.2-7.3c-1.8-5.1-7.1-8.1-12.4-7.1l10.7-18.5c.5 1.5.1.7 8.1 14.5L21.4 43zm31.2 9.9c-3.4 2-7.8.8-9.8-2.6L23.9 17.6c-3.6-6.2 3.3-13.3 9.5-9.8 2.3 1.3 1.7.6 21.7 35.3 2 3.4.9 7.8-2.5 9.8z"/></svg>