<svg xmlns="http://www.w3.org/2000/svg" xml:space="preserve" style="enable-background:new 0 0 60 60" viewBox="0 0 60 60"><path class="svg__ico" d="M28 0h12.5l2 .1c3.2.1 5.4.7 7.3 1.4 2 .7 3.8 1.9 5.3 3.5 1.5 1.5 2.7 3.3 3.5 5.3.7 1.9 1.3 4.1 1.4 7.3l.1 1.9c0 1.5.1 2.9.1 5.8v9c0 2.7 0 4.2-.1 5.6v1.2c0 .4 0 .8-.1 1.3-.1 3.2-.7 5.4-1.4 7.3-1.6 4-4.7 7.2-8.8 8.8-1.9.7-4.1 1.3-7.3 1.4l-1.9.1H25.3c-4.1 0-5.2-.1-7.7-.2-3.2-.1-5.4-.7-7.3-1.4-2-.7-3.8-1.9-5.3-3.5-1.5-1.5-2.7-3.3-3.5-5.3C.8 47.7.2 45.5.1 42.3L0 40.7V25.4c0-2.4 0-3.8.1-5v-1.1l.1-1.6c.1-3.2.7-5.4 1.4-7.3.7-2 1.9-3.9 3.4-5.4 1.5-1.5 3.3-2.7 5.3-3.5C12.2.8 14.4.2 17.6.1l1.6-.1H28zm6.6 5.5h-8.8c-2.6 0-4.1 0-5.4.1h-2.5c-2.8.1-4.4.6-5.4 1l-.1.1c-1.2.4-2.3 1.1-3.2 2l-.3.2c-.9.9-1.6 1.9-2.1 3.1l-.2.6c-.4 1-.8 2.5-.9 4.9L5.5 20c-.1 1.7-.1 3.5-.1 8v6.9c0 3.7.1 4.8.2 7.2.1 2.9.6 4.5 1 5.6.5 1.3 1.2 2.5 2.2 3.4.9.9 1.9 1.6 3.1 2.1l.3.1c1 .4 2.5.9 5.2 1l1.1.1h1.1l1.8.1h13.4c2.2 0 3.4 0 4.6-.1h1.4c.4 0 .8 0 1.2-.1 2.9-.1 4.5-.6 5.6-1 2.6-1 4.7-3.1 5.7-5.7l.1-.3c.4-1 .8-2.5.9-4.9l.1-2.1.1-1.9V25.6c0-2.7 0-4.2-.1-5.5V17.7c-.1-2.8-.6-4.4-1-5.4l-.1-.1c-.4-1.2-1.1-2.3-2-3.2l-.3-.3c-.7-.7-1.8-1.4-3-1.9l-.3-.1c-1-.4-2.5-.9-5.2-1l-1.4-.1-1.7-.1h-4.8zM30 14.6c8.5 0 15.4 6.9 15.4 15.4S38.5 45.4 30 45.4 14.6 38.5 14.6 30 21.5 14.6 30 14.6zm0 5.4c-5.5 0-10 4.5-10 10s4.5 10 10 10 10-4.5 10-10-4.5-10-10-10zm16-9.6c2 0 3.6 1.6 3.6 3.6S48 17.6 46 17.6 42.4 16 42.4 14s1.6-3.6 3.6-3.6z" style="fill-rule:evenodd;clip-rule:evenodd"/></svg>