<svg xmlns="http://www.w3.org/2000/svg" xml:space="preserve" style="enable-background:new 0 0 60 60" viewBox="0 0 60 60"><path class="svg__ico" d="m50.5 37.8-8.1-8.1c.9-2.3 1.1-4.8.5-7.3s-1.7-4.6-3.5-6.4L27.5 4.1c-1.2-1.3-2.6-2.3-4.2-3C21.7.4 19.9 0 18.2 0s-3.5.3-5.1 1c-1.6.6-3.1 1.6-4.3 2.8S6.6 6.5 6 8.1s-1 3.3-1 5.1c0 1.7.4 3.5 1.1 5.1.7 1.6 1.7 3 3 4.2l8.1 8.1c-.9 2.3-1 4.8-.5 7.3.5 2.4 1.7 4.6 3.5 6.4l11.9 11.9c1.2 1.2 2.6 2.2 4.2 2.8 1.6.7 3.3 1 5 1 1.7 0 3.4-.3 5-1s3-1.6 4.2-2.8c1.2-1.2 2.2-2.6 2.8-4.2.7-1.6 1-3.3 1-5 0-1.7-.3-3.4-1-5-.6-1.6-1.6-3-2.8-4.2zM10.8 13.3c0-1.5.5-2.9 1.3-4.2.8-1.2 2-2.2 3.4-2.7 1.4-.6 2.9-.7 4.3-.4 1.5.3 2.8 1 3.8 2l11.9 11.9c1.4 1.4 2.2 3.3 2.2 5.2-2.5-2.1-5.6-3.2-8.9-3.1-3.2.1-6.3 1.5-8.6 3.7L13 18.6c-.7-.7-1.3-1.5-1.6-2.4-.4-1-.6-1.9-.6-2.9zm24.7 17.2c-1.4 1.4-3.3 2.2-5.3 2.2s-3.9-.8-5.3-2.2l-.8-.8c1.4-1.4 3.3-2.2 5.3-2.2s3.9.8 5.3 2.2l.8.8zm11.1 21.8c-1.4 1.4-3.3 2.2-5.3 2.2s-3.9-.8-5.3-2.2l-11.9-12c-1.4-1.4-2.2-3.3-2.2-5.2 2.5 2.1 5.6 3.2 8.9 3.1 3.2-.1 6.3-1.5 8.6-3.8l7.2 7.2c1.4 1.4 2.2 3.3 2.2 5.3 0 2.1-.8 4-2.2 5.4z"/></svg>