<svg xmlns="http://www.w3.org/2000/svg" xml:space="preserve" style="enable-background:new 0 0 587 189.6" viewBox="0 0 587 189.6"><path d="M227.4 127.8V87.6c0-5.1-1.2-8.8-3.5-11.3s-5.9-3.7-10.8-3.7c-6.5 0-11.3 1.8-14.3 5.3s-4.5 9.3-4.5 17.4v32.6H185V65.7h7.6l1.5 8.5h.5c1.9-3.1 4.6-5.4 8.1-7.1 3.5-1.7 7.3-2.5 11.6-2.5 7.5 0 13.1 1.8 16.9 5.4 3.8 3.6 5.7 9.4 5.7 17.3v40.5h-9.5zm24.9-29.3c.2 7.3 2 12.8 5.5 16.6 3.5 3.8 8.4 5.7 14.8 5.7 6.7 0 13.3-1.4 19.8-4.2v8.4c-3.3 1.4-6.5 2.5-9.4 3.1-3 .6-6.5.9-10.7.9-9.2 0-16.4-2.8-21.7-8.4-5.3-5.6-8-13.3-8-23.3s2.5-18 7.4-23.8c4.9-5.9 11.5-8.8 19.9-8.8 7.8 0 13.9 2.6 18.5 7.7 4.5 5.1 6.8 11.9 6.8 20.2v5.9h-42.9zM281 77.2c-2.6-3.2-6.4-4.7-11.3-4.7-5 0-9 1.6-11.9 4.9-3 3.2-4.7 7.7-5.2 13.5H285c0-6-1.3-10.6-4-13.7zm33.1 41c1.8 2 4.2 3 7.3 3 1.7 0 3.3-.1 4.8-.4 1.5-.2 2.8-.5 3.7-.8v7.2c-1 .5-2.5.9-4.5 1.2-2 .3-3.8.5-5.4.5-12 0-18-6.3-18-19V73h-8.9v-4.5l8.9-3.9 4-13.3h5.4v14.4h18V73h-18v36.5c.1 3.8 1 6.7 2.7 8.7zm98 9.6V87.4c0-4.9-1.1-8.7-3.2-11.1-2.1-2.5-5.4-3.7-9.9-3.7-5.9 0-10.2 1.7-13 5-2.8 3.4-4.2 8.5-4.2 15.5v34.7h-9.4V87.4c0-4.9-1.1-8.7-3.2-11.1-2.1-2.5-5.4-3.7-9.9-3.7-5.9 0-10.2 1.8-12.9 5.3-2.7 3.5-4.1 9.3-4.1 17.4v32.6h-9.4V65.7h7.6l1.5 8.5h.5c1.8-3 4.3-5.4 7.5-7.1 3.2-1.7 6.8-2.5 10.8-2.5 9.7 0 16 3.5 19 10.5h.5c1.8-3.2 4.5-5.8 8-7.7 3.5-1.9 7.5-2.8 12-2.8 7 0 12.3 1.8 15.8 5.4 3.5 3.6 5.2 9.4 5.2 17.3v40.5h-9.2zm64.5-7.4c-5.1 5.7-12.1 8.5-21.1 8.5-5.5 0-10.5-1.3-14.8-3.9-4.3-2.6-7.6-6.3-10-11.2-2.3-4.9-3.5-10.6-3.5-17.1 0-10.1 2.5-18 7.6-23.6 5.1-5.6 12.1-8.5 21.1-8.5 8.7 0 15.6 2.9 20.7 8.7 5.1 5.8 7.7 13.6 7.7 23.5-.1 10-2.6 17.9-7.7 23.6zm-6.9-41.7c-3.2-4.1-7.9-6.1-14.1-6.1-6.2 0-10.8 2-13.9 6.1-3.1 4-4.7 10.1-4.7 18.1 0 7.9 1.6 14 4.8 18.1 3.2 4.2 7.8 6.2 14 6.2s10.8-2.1 14-6.2c3.2-4.1 4.8-10.2 4.8-18.2-.1-7.9-1.7-13.9-4.9-18zm45.2 49.1h-11l-23.6-62.1h10.1l13.4 36.8c3 8.6 4.8 14.2 5.3 16.8h.5c.4-2 1.7-6.1 3.9-12.4 2.2-6.3 7.2-20 14.9-41.2h10.1l-23.6 62.1zm29.3-29.3c.2 7.3 2 12.8 5.5 16.6 3.5 3.8 8.4 5.7 14.8 5.7 6.7 0 13.3-1.4 19.8-4.2v8.4c-3.3 1.4-6.5 2.5-9.4 3.1-3 .6-6.5.9-10.7.9-9.2 0-16.4-2.8-21.7-8.4-5.3-5.6-8-13.3-8-23.3s2.5-18 7.4-23.8c4.9-5.9 11.5-8.8 19.9-8.8 7.8 0 13.9 2.6 18.5 7.7 4.5 5.1 6.8 11.9 6.8 20.2v5.9h-42.9zM573 77.2c-2.6-3.2-6.4-4.7-11.3-4.7-5 0-9 1.6-11.9 4.9-3 3.2-4.7 7.7-5.2 13.5h32.5c-.2-6-1.5-10.6-4.1-13.7z"/><path d="M110.4 33c7 0 12.6 5.6 12.6 12.6V177c0 7-5.6 12.6-12.6 12.6S99 184 99 177V45.6c0-7 4.4-12.6 11.4-12.6z" style="fill-rule:evenodd;clip-rule:evenodd;fill:#0255a3"/><path d="M44.4 15c7 0 12.6 5.6 12.6 12.6V90c0 7-5.6 12.6-12.6 12.6S33 97 33 90V27.6c0-7 4.4-12.6 11.4-12.6z" style="fill-rule:evenodd;clip-rule:evenodd;fill:#6acfe3"/><path d="M77.4 48c7 0 12.6 5.6 12.6 12.6V147c0 7-5.6 12.6-12.6 12.6S66 154 66 147V60.6c0-7 4.4-12.6 11.4-12.6z" style="fill-rule:evenodd;clip-rule:evenodd;fill:#34a0eb"/><path d="M143.4 0c7 0 12.6 5.6 12.6 12.6V144c0 7-5.6 12.6-12.6 12.6S132 151 132 144V12.6c0-7 4.4-12.6 11.4-12.6z" style="fill-rule:evenodd;clip-rule:evenodd;fill:#283d7c"/><path d="M11.4 72c7 0 12.6 5.6 12.6 12.6V126c0 7-5.6 12.6-12.6 12.6S0 133 0 126V84.6C0 77.6 4.4 72 11.4 72z" style="fill-rule:evenodd;clip-rule:evenodd;fill:#b0deed"/></svg>