<svg xmlns="http://www.w3.org/2000/svg" xml:space="preserve" style="enable-background:new 0 0 264 264" viewBox="0 0 264 264"><path class="svg__ico" d="M44.2 189.5c-8.9 0-16-7.1-16-16v-56.1c0-8.8 7.1-16 16-16h.1c8.8 0 16 7.1 16 16v56.1c-.1 8.8-7.3 16-16.1 16zM88.1 143.3c-8.8 0-16-7.2-16-16v-84c0-8.8 7.2-16 16-16s16 7.2 16 16v84c0 8.9-7.2 16-16 16zM131.8 218.1c-8.8 0-16-7.2-16-16v-116c0-8.8 7.2-16 16-16s16 7.2 16 16v116c0 8.9-7.1 16-16 16zM175.8 256.9c-8.9 0-16-7.2-16-16v-174c0-8.8 7.2-16 16-16s16 7.2 16 16v174c0 8.9-7.1 16-16 16zM219.8 213.1c-8.9 0-16-7.2-16-16v-174c0-8.8 7.2-16 16-16s16 7.2 16 16v174c0 8.8-7.1 16-16 16z"/></svg>