<?xml version="1.0" encoding="utf-8"?>
<!-- Generator: Adobe Illustrator 25.2.3, SVG Export Plug-In . SVG Version: 6.00 Build 0)  -->
<svg version="1.1" id="Layer_1" xmlns="http://www.w3.org/2000/svg" xmlns:xlink="http://www.w3.org/1999/xlink" x="0px" y="0px"
	 viewBox="0 0 56 60" style="enable-background:new 0 0 56 60;" xml:space="preserve">
<path d="M49,16c2.2,0,4,1.8,4,4v36h3v4H0v-4h3V40c0-2.2,1.8-4,4-4h6c2.2,0,4,1.8,4,4v16h4V32c0-2.2,1.8-4,4-4h6c2.2,0,4,1.8,4,4v24
	h4V20c0-2.2,1.8-4,4-4L49,16z M13,40H7v16h6V40z M31,32h-6v24h6V32z M49,20h-6v36h6V20z M46,0c1.1,0,2,0.9,2,2c0,0.5-0.2,1-0.5,1.3
	l-4.1,4.6C35.5,16.9,24,22,12,22H0v-4h12c10.9,0,21.2-4.6,28.4-12.8L41.5,4h-5.6V0H46z"/>
</svg>
