<svg xmlns="http://www.w3.org/2000/svg" xml:space="preserve" style="enable-background:new 0 0 60 60" viewBox="0 0 60 60"><path class="svg__ico" d="M5.5 53.7c.5.5 1.2.7 1.9.5l7.5-2.6 3.1 7.3c.3.6.9 1.1 1.6 1.1.7 0 1.3-.4 1.6-1l5.9-13.3c.9.1 1.9.2 2.8.2.9 0 1.9-.1 2.8-.2L38.5 59c.3.6.9 1 1.6 1 .7 0 1.3-.4 1.6-1.1l3.1-7.3 7.5 2.6c.7.2 1.4 0 1.9-.5s.6-1.3.3-1.9l-6.6-15c3-3.9 4.7-8.7 4.7-13.9 0-12.7-10.3-23-22.9-23S7 10.3 7 23c0 5.2 1.8 10 4.7 13.9l-6.6 15c-.2.6-.1 1.3.4 1.8zm44.3-4.1-5.3-1.8c-.9-.3-1.8.1-2.2 1l-2.2 5.1-3.9-8.9c3.5-1 6.6-2.8 9.2-5.2l4.4 9.8zM10.5 23c0-10.7 8.7-19.5 19.3-19.5S49.2 12.2 49.2 23c0 10.7-8.7 19.3-19.3 19.3S10.5 33.6 10.5 23zm3.8 16.7c2.6 2.4 5.7 4.2 9.2 5.2l-3.9 8.9-2.2-5.1c-.4-.8-1.3-1.3-2.2-1L10 49.6l4.3-9.9zm15.6-29c.7 0 1.3.4 1.6 1l2.7 5.5 6 .9c.7.1 1.2.6 1.4 1.2.2.6 0 1.3-.4 1.8l-4.4 4.2 1 6c.1.7-.2 1.3-.7 1.7-.5.4-1.3.4-1.9.1l-5.4-2.8-5.4 2.8c-.6.3-1.3.3-1.9-.1-.5-.4-.8-1.1-.7-1.7l1-6-4.2-4.3c-.5-.5-.7-1.2-.4-1.8.2-.6.8-1.1 1.4-1.2l6-.9 2.7-5.5c.3-.6.9-.9 1.6-.9zm0 5.7-1.5 3.1c-.3.5-.8.9-1.3 1l-3.4.5 2.5 2.4c.4.4.6 1 .5 1.6l-.7 3.3 3-1.6c.5-.3 1.1-.3 1.6 0l3 1.6-.6-3.4c-.1-.6.1-1.2.5-1.6l2.5-2.4-3.4-.5c-.6-.1-1.1-.4-1.3-1l-1.4-3z"/></svg>