<svg xmlns="http://www.w3.org/2000/svg" xml:space="preserve" style="enable-background:new 0 0 60 60" viewBox="0 0 60 60"><path class="svg__ico" d="M53 18h-2.3V6.3c0-1.3-1-2.3-2.3-2.3-7.7 0-11.5 2.7-14.9 5.1-3.2 2.3-6 4.2-12.3 4.2h-9.4C5.3 13.3 0 18.6 0 25c0 5.7 4 10.4 9.4 11.5v12c0 3.9 3.2 7 7 7s7-3.2 7-7h2.3c1.3 0 2.3-1 2.3-2.3s-1-2.3-2.3-2.3h-2.3V37c4.7.4 7.1 2.2 9.9 4.2 3.4 2.4 7.2 5.1 14.9 5.1.6 0 1.2-.2 1.7-.7.4-.4.7-1 .7-1.7V32.1H53c3.9 0 7-3.2 7-7S56.8 18 53 18zM4.7 25c0-3.9 3.2-7 7-7h7v14.1h-7c-3.9 0-7-3.2-7-7.1zm14.1 23.5c0 1.3-1.1 2.3-2.3 2.3s-2.3-1.1-2.3-2.3V36.8h4.7v11.7zm27.1-7.1c-4.7-.4-7.1-2.2-9.9-4.2-3-2.1-6.4-4.6-12.6-5.1V17.9c6.2-.5 9.6-2.9 12.6-5 2.8-2 5.2-3.7 9.9-4.1v32.6zm7.1-14h-2.3v-4.7H53c1.3 0 2.3 1.1 2.3 2.3s-1 2.4-2.3 2.4z"/></svg>