<svg xmlns="http://www.w3.org/2000/svg" xml:space="preserve" style="enable-background:new 0 0 60 60" viewBox="0 0 60 60"><path class="svg__ico" d="M54 35.8c.9-3.8.9-7.8 0-11.6 1.3-.9 2.2-2.3 2.6-3.9.5-1.8.2-3.7-.7-5.3-.9-1.6-2.5-2.8-4.3-3.3-1.6-.4-3.2-.3-4.7.4-2.8-2.7-6.3-4.7-10.1-5.8-.4-3.5-3.4-6.3-7-6.3s-6.6 2.8-7 6.3c-3.8 1.1-7.2 3.1-10.1 5.8-1.5-.7-3.1-.8-4.7-.4-1.8.5-3.3 1.6-4.3 3.3-.9 1.6-1.2 3.5-.7 5.3.4 1.6 1.3 2.9 2.6 3.9C5 28 5 32 5.9 35.8c-1.3.9-2.2 2.3-2.6 3.9-.5 1.8-.3 3.7.6 5.3.9 1.6 2.5 2.8 4.3 3.3.6.2 1.2.2 1.8.2 1 0 1.9-.2 2.8-.6 2.8 2.7 6.3 4.7 10.1 5.8.4 3.5 3.4 6.3 7 6.3s6.6-2.8 7-6.3c3.8-1.1 7.2-3.1 10.1-5.8.9.4 1.9.6 2.8.6.6 0 1.2-.1 1.8-.2 1.8-.5 3.3-1.6 4.3-3.3.9-1.6 1.2-3.5.7-5.3-.4-1.6-1.3-2.9-2.6-3.9zM43.7 38c-1.4 2.5-1.2 5.5.5 7.7-2.3 2.1-4.9 3.6-7.8 4.5-1.1-2.5-3.6-4.3-6.5-4.3s-5.4 1.8-6.5 4.3c-2.9-.9-5.6-2.5-7.8-4.5.5-.7.9-1.5 1.2-2.4.5-1.8.2-3.7-.7-5.3-.9-1.6-2.5-2.8-4.3-3.3-.9-.2-1.8-.3-2.7-.2-.6-3-.7-6 0-9 .3 0 .6.1.8.1.6 0 1.2-.1 1.8-.2 1.8-.5 3.3-1.6 4.3-3.3.9-1.6 1.2-3.5.7-5.3-.2-.9-.6-1.7-1.2-2.4 2.3-2.1 4.9-3.6 7.8-4.5 1.1 2.5 3.6 4.3 6.5 4.3s5.4-1.8 6.5-4.3c2.9.9 5.6 2.5 7.8 4.5-1.6 2.2-1.9 5.2-.5 7.7 1.3 2.3 3.7 3.5 6.1 3.5h.8c.7 3 .7 6 0 9-2.6-.4-5.3.9-6.8 3.4zm6.1-23c.3 0 .6 0 .9.1.9.2 1.7.8 2.1 1.6.5.8.6 1.8.4 2.7s-.8 1.7-1.6 2.1c-1.7 1-3.8.4-4.8-1.3-1-1.7-.4-3.8 1.3-4.8.5-.2 1.1-.4 1.7-.4zM29.9 3.5c1.9 0 3.5 1.6 3.5 3.5s-1.6 3.5-3.5 3.5S26.4 9 26.4 7s1.6-3.5 3.5-3.5zM7 16.8c.5-.8 1.2-1.4 2.1-1.6.3-.2.6-.2.9-.2.6 0 1.2.2 1.8.5.8.5 1.4 1.2 1.6 2.1.2.9.1 1.9-.4 2.7-.5.8-1.2 1.4-2.1 1.6-.9.3-1.8.1-2.6-.3-.8-.5-1.4-1.2-1.6-2.1-.3-1-.2-1.9.3-2.7zm2.1 28.1c-.9-.2-1.7-.8-2.1-1.6s-.6-1.8-.4-2.7c.2-.9.8-1.7 1.6-2.1.6-.4 1.2-.5 1.8-.5.3 0 .6 0 .9.1.9.2 1.7.8 2.1 1.6.5.8.6 1.8.4 2.7-.2.9-.8 1.7-1.6 2.1-.8.5-1.8.6-2.7.4zm20.8 11.6c-1.9 0-3.5-1.6-3.5-3.5s1.6-3.5 3.5-3.5 3.5 1.6 3.5 3.5-1.5 3.5-3.5 3.5zM49.8 38c.6 0 1.2.2 1.8.5.8.5 1.4 1.2 1.6 2.1.2.9.1 1.9-.4 2.7s-1.2 1.4-2.1 1.6c-.9.2-1.9.1-2.7-.4-1.7-1-2.3-3.1-1.3-4.8.7-1.1 1.9-1.7 3.1-1.7zM29.9 17.6c3.6 0 6.4 2.9 6.4 6.4 0 1.2-.3 2.3-.9 3.3 2.2.8 3.8 3 3.8 5.5v9.6H20.6v-9.6c0-2.5 1.6-4.7 3.8-5.5-.6-1-.9-2.1-.9-3.3 0-3.5 2.9-6.4 6.4-6.4zm3.5 12.9h-7c-1.3 0-2.3 1.1-2.3 2.3v6.1h11.7v-6.1c0-1.3-1.1-2.3-2.4-2.3zm-3.5-9.4c-1.6 0-2.9 1.3-2.9 2.9s1.3 2.9 2.9 2.9c1.6 0 2.9-1.3 2.9-2.9s-1.3-2.9-2.9-2.9z"/></svg>