<svg xmlns="http://www.w3.org/2000/svg" xml:space="preserve" style="enable-background:new 0 0 150 150" viewBox="0 0 150 150"><path class="svg__ico" d="M145.5 49.3c3 8 4.5 16.7 4.5 25.7 0 41.4-33.6 75-75 75-17.4 0-33.4-5.9-46.2-15.9l-7.7 6.7c-.7.6-1.5.8-2.4.4-.9-.3-1.4-1-1.5-1.9l-3-27.4c-.1-.8.2-1.5.8-2.1.6-.5 1.4-.7 2.2-.4l25.3 8c.8.3 1.4.9 1.6 1.8.2.8-.1 1.7-.8 2.3l-6.7 5.8c10.7 7.9 24 12.5 38.3 12.5 35.8 0 64.8-29 64.8-64.8 0-7.3-1.2-14.3-3.4-20.8-.3-1 0-2 .8-2.6l4.6-3.4c.6-.5 1.3-.6 2.1-.4.9.3 1.4.8 1.7 1.5zM75 53.2c12 0 21.8 9.8 21.8 21.8S87 96.8 75 96.8 53.2 87 53.2 75 63 53.2 75 53.2zm12.5-17.9c2.3.8 4.6 1.7 6.8 2.8.7.4 1 1.1.9 1.9-.9 4 .2 8.4 3.4 11.6 3.2 3.2 7.5 4.3 11.6 3.4.7-.2 1.5.2 1.9.8 1.1 2.2 2.1 4.5 2.8 6.8.2.7 0 1.5-.7 1.9-3.5 2.2-5.8 6.1-5.8 10.6 0 4.4 2.3 8.3 5.8 10.5.6.4.9 1.2.7 1.9-.7 2.3-1.7 4.6-2.8 6.8-.4.7-1.1 1-1.9.9-4-.9-8.4.2-11.6 3.4-3.1 3.2-4.3 7.5-3.4 11.6.2.7-.2 1.5-.9 1.9-2.2 1.1-4.5 2.1-6.8 2.8-.7.2-1.5 0-1.9-.7-2.2-3.5-6.1-5.8-10.5-5.8-4.5 0-8.4 2.3-10.6 5.8-.4.6-1.2.9-1.9.7-2.4-.7-4.7-1.7-6.8-2.8-.7-.4-1-1.1-.8-1.9.9-4-.2-8.4-3.4-11.6-3.2-3.1-7.5-4.3-11.6-3.4-.7.2-1.5-.2-1.9-.9-1.1-2.2-2.1-4.5-2.8-6.8-.2-.7 0-1.5.7-1.9 3.5-2.2 5.8-6.1 5.8-10.5 0-4.5-2.3-8.4-5.8-10.6-.7-.4-.9-1.2-.7-1.9.8-2.4 1.7-4.7 2.8-6.8.4-.7 1.1-1 1.9-.8 4 .9 8.4-.2 11.6-3.4S55.9 44.1 55 40c-.2-.7.2-1.5.8-1.9 2.2-1.1 4.5-2.1 6.8-2.8.7-.2 1.5 0 1.9.7 2.2 3.5 6.1 5.8 10.6 5.8 4.4 0 8.3-2.3 10.5-5.8.4-.7 1.1-1 1.9-.7zM75 0c17.4 0 33.4 5.9 46.1 15.9l7.7-6.7c.7-.6 1.5-.8 2.4-.4.8.3 1.3 1 1.5 1.9l3 27.4c.1.8-.2 1.5-.8 2.1-.6.5-1.4.7-2.2.4l-25.4-8c-.8-.3-1.4-.9-1.6-1.8-.2-.8.1-1.7.8-2.3l6.7-5.8c-10.7-7.9-24-12.5-38.3-12.5-35.8 0-64.8 29-64.8 64.8 0 7.2 1.2 14.2 3.4 20.7.4 1 0 2-.8 2.6l-4.6 3.4c-.6.5-1.3.6-2.1.4-.7-.2-1.3-.7-1.5-1.4C1.6 92.7 0 84 0 75 0 33.6 33.6 0 75 0z" style="fill-rule:evenodd;clip-rule:evenodd"/></svg>