<svg xmlns="http://www.w3.org/2000/svg" xml:space="preserve" style="enable-background:new 0 0 60 60" viewBox="0 0 60 60"><path class="svg__ico" d="m56.9 40.9-6-4.9c-3.9-3.2-10-2.9-13.6.7l-.3.2c-.6.6-1.6.6-2.2 0L23.1 25.2c-.6-.6-.6-1.5 0-2.1 3.6-3.6 3.9-9.7.8-13.7L19 3.2c-3.1-4-8.6-4.3-12.2-.7l-.9.9C-.5 9.8-2 21.3 2.8 28.9c0 0 2.8 6.5 12.3 16s16 12.3 16 12.3c7.7 4.7 19.1 3.3 25.5-3.1l.9-.9c3.6-3.5 3.3-9-.6-12.3zm-3.8 8-.9.9c-4.4 4.4-12.7 5.4-18 2.2l-.2-.2-.4-.2c-.5-.2-1.7-.8-3.5-2.1-3.2-2.1-6.8-5.1-10.6-9s-6.8-7.5-9-10.6c-1.2-1.8-1.9-3-2.1-3.5l-.1-.4-.3-.4c-3.2-5.1-2.2-13.5 2.2-17.9l.9-.9c1-1 2.2-.9 3.1.2l4.9 6.2c1.2 1.5 1.1 4.2-.3 5.6-3 3-2.9 7.8 0 10.8l11.7 11.7c3 3 7.9 3 10.8 0l.2-.2c1.4-1.4 3.9-1.5 5.4-.3l6 4.9c1.2.9 1.3 2.2.2 3.2z" style="fill-rule:evenodd;clip-rule:evenodd"/></svg>