<svg xmlns="http://www.w3.org/2000/svg" xml:space="preserve" style="enable-background:new 0 0 60 60" viewBox="0 0 60 60"><path class="svg__ico" d="M54.3 15.2 40 1.4C39.1.6 37.9.1 36.7.1L9.9 0C6.6 0 4 2.6 4 5.9v48.3c0 3.2 2.7 5.9 6 5.9h39.7c3.2 0 5.8-2.6 5.8-5.9V18c0-1.1-.5-2.1-1.2-2.8zM40 7.9l7.4 7.1h-6.1c-.7 0-1.3-.5-1.3-1.1v-6zm9.7 47.4H10c-.7 0-1.3-.6-1.3-1.2V5.9c0-.6.6-1.2 1.2-1.2l25.4.1v9.1c0 3.2 2.7 5.8 6 5.8h9.5v34.4c0 .6-.4 1.2-1.1 1.2zM20.4 17.9c-1.3 0-2.3 1.1-2.3 2.3v25.3c0 1.3 1.1 2.3 2.3 2.3s2.3-1.1 2.3-2.3V20.3c.1-1.3-1-2.4-2.3-2.4zm9.4 6.1c-1.3 0-2.3 1.1-2.3 2.3v19.2c0 1.3 1.1 2.3 2.3 2.3 1.3 0 2.3-1.1 2.3-2.3V26.4c0-1.3-1-2.4-2.3-2.4zm9.4 6.1c-1.3 0-2.3 1.1-2.3 2.3v13.1c0 1.3 1.1 2.3 2.3 2.3s2.3-1.1 2.3-2.3v-13c0-1.3-1-2.4-2.3-2.4z"/></svg>