<svg xmlns="http://www.w3.org/2000/svg" xml:space="preserve" style="enable-background:new 0 0 60 59.9" viewBox="0 0 60 59.9"><path class="svg__ico" d="M11.2 48.8c.8.8.8 2 0 2.8l-7.8 7.8c-.4.4-.9.6-1.4.6-.8 0-1.5-.5-1.9-1.2s-.1-1.6.4-2.2l7.8-7.8c.9-.8 2.2-.8 2.9 0zm4.5 3.3c.7.2 1.3.7 1.4 1.4.2.7 0 1.4-.5 2l-3.9 3.9c-.4.4-.9.6-1.4.6-.8 0-1.5-.5-1.9-1.2s-.1-1.6.4-2.2l3.9-3.9c.6-.6 1.3-.8 2-.6zM57.6 0h.4c1.1 0 2 .9 2 2v.7c0 3.9-.7 20.7-11.5 31.6-3.7 3.9-8 7.2-12.7 9.7l.1 6.1c0 1.6-.6 3.2-1.8 4.3l-4.5 4.5c-.4.4-.9.6-1.4.6-.9 0-1.7-.6-2-1.5l-2-8.1c-.9.6-2 .9-3.1.9-1.6 0-3.1-.6-4.3-1.8l-5.7-5.7c-2-2-2.3-5.1-.9-7.4l-8.1-2c-.7-.2-1.3-.7-1.5-1.4-.2-.7 0-1.4.5-2L5.6 26c1.1-1.2 2.7-1.8 4.3-1.8l6.1.1c2.5-4.7 5.8-9 9.7-12.7C36.5.7 53.4 0 57.3 0h.3zM31.7 45.9c-1.3.5-2.5 1-3.8 1.4-.1 0-.2 0-.2.1l1.5 6.2 2-2c.4-.4.6-.9.6-1.4l-.1-4.3zM6.4 42.8c.7.2 1.3.7 1.4 1.4.2.7 0 1.5-.5 2L3.4 50c-.4.4-.9.6-1.4.6-.8 0-1.5-.5-1.9-1.2s-.1-1.6.5-2.2l3.9-3.9c.5-.5 1.2-.7 1.9-.5zm8.9-6.7-1.4 1.4c-.8.8-.8 2.1 0 2.8l5.7 5.7c.8.8 2 .8 2.8 0l1.2-1.2c.1-.1.1-.2.2-.2l-8.5-8.5zm25-29C36.2 8.7 32 11 28.6 14.4c-5.2 4.9-9.2 11-11.6 17.7l11 11c6.7-2.5 12.7-6.5 17.7-11.6 3.4-3.4 5.7-7.6 7.3-11.8L40.3 7.1zM9.9 28.2c-.5 0-1.1.2-1.4.6l-2 2 6.2 1.5c0-.1 0-.2.1-.2.4-1.3.9-2.6 1.4-3.8l-4.3-.1zm33.4-9.3c2.1 3.2 1.7 7.4-1 10.2-1.5 1.5-3.6 2.4-5.7 2.4-3.8 0-7.1-2.7-7.9-6.5s1.3-7.5 4.8-9c3.6-1.5 7.7-.3 9.8 2.9zm-6.6.4c-1.9 0-3.6 1.4-3.9 3.2-.4 1.9.6 3.8 2.4 4.5 1.8.7 3.8.1 4.9-1.5 1.1-1.6.9-3.7-.5-5.1-.9-.7-1.9-1.1-2.9-1.1zM55.9 4.1c-2.4.1-6.6.5-11.3 1.7l9.6 9.6c1.3-4.8 1.6-9 1.7-11.3z"/></svg>