<svg xmlns="http://www.w3.org/2000/svg" xml:space="preserve" style="enable-background:new 0 0 60 60" viewBox="0 0 60 60"><path class="svg__ico" d="M57 31.2c.1-.9.1-1.8.1-2.7C57 17 50.1 6.6 39.4 2.2S16.5.2 8.3 8.4C3 13.7 0 20.9 0 28.5.1 44.2 12.8 57 28.6 56.9c.5 0 1 0 1.6-.1v-4.3c-.5 0-1.6.1-1.6.1-3.4 0-7.1-4.8-9.1-12.4h8.4v-4.3h-9.3c-.7-4.9-.7-10 0-14.9h19.9c.3 2.2.5 4.3.5 6.5l4.3-.1c0-2.2-.2-4.3-.5-6.4h8.8c.8 2.4 1.2 4.9 1.2 7.4 0 .9-.1 1.8-.2 2.7H57zM4.3 28.5c0-2.5.4-5 1.2-7.4h8.8c-.7 4.9-.7 10 0 14.9H5.5c-.8-2.5-1.2-5-1.2-7.5zm15 22.3c-5.1-2.1-9.3-5.8-12-10.6H15c.9 3.8 2.3 7.4 4.3 10.6zm-4.2-34.1H7.3c2.7-4.8 6.9-8.5 12-10.6-2 3.3-3.4 6.9-4.2 10.6zm4.4 0c2-7.7 5.7-12.4 9.1-12.4 1.7 0 3.5 1.2 5.1 3.3 1.9 2.8 3.3 5.9 4 9.1H19.5zm16.2 19.6c4.4-4.4 11.6-4.4 16 0 3.9 3.8 4.4 9.8 1.4 14.3l6.4 6.4-3 3-6.4-6.4c-4.5 3-10.5 2.5-14.4-1.4-2.1-2.1-3.3-5-3.3-8s1.2-5.8 3.3-7.9zm13 3c-2.8-2.7-7.2-2.7-10 0-1.3 1.3-2.1 3.1-2.1 5s.7 3.6 2.1 5c2.8 2.7 7.2 2.7 10 0 1.3-1.3 2.1-3.1 2.1-5s-.8-3.7-2.1-5zM37.9 6.1c5 2.1 9.2 5.8 11.9 10.6h-7.7c-.7-3.7-2.2-7.3-4.2-10.6z"/></svg>