<svg xmlns="http://www.w3.org/2000/svg" xml:space="preserve" style="enable-background:new 0 0 60 61" viewBox="0 0 60 61"><path class="svg__ico" d="M54.5 1h-49C2.5 1 0 3.4 0 6.5v49C0 58.6 2.5 61 5.5 61h49c3 0 5.5-2.4 5.5-5.5v-49C60 3.4 57.5 1 54.5 1zM41.3 4.5c1.1 0 2 .9 2 2 0 .7.1 1.4.4 2h-8c-1.1 0-2-.9-2-2 0-.7-.1-1.4-.4-2h8zm-13.2 0c1.1 0 2 .9 2 2 0 .7.1 1.4.4 2h-8c-1.1 0-2-.9-2-2 0-.7-.1-1.4-.4-2h8zm28.4 51c0 1.1-.9 2-2 2h-49c-1.1 0-2-.9-2-2v-49c0-1.1.9-2 2-2h9.4c1.1 0 2 .9 2 2 0 3 2.5 5.5 5.5 5.5h34v43.5zm0-47h-7.7c-1.1 0-2-.9-2-2 0-.7-.1-1.4-.4-2h8c1.1 0 2 .9 2 2v2zM44.1 44.1c5.1 0 9.3-4.2 9.3-9.3-.5-12.3-18.1-12.3-18.6 0 0 5.1 4.2 9.3 9.3 9.3zm0-15.1c3.2 0 5.8 2.6 5.8 5.8-.3 7.6-11.3 7.6-11.5 0-.1-3.2 2.5-5.8 5.7-5.8zM14 33h-1.9c-1.1 0-2-.9-2-2s.9-2 2-2h3.8c1 0 1.8-.8 1.8-1.8s-.8-1.8-1.8-1.8h-3.8c-3 0-5.5 2.5-5.5 5.5 0 3.1 2.5 5.5 5.5 5.5H14c1.1 0 2 .9 2 2s-.9 2-2 2h-3.8c-1 0-1.8.8-1.8 1.8s.8 1.8 1.8 1.8H14c7.3-.2 7.3-10.7 0-11zm10.4 11.1h7.5c2.3-.1 2.3-3.4 0-3.5h-5.8v-4H30c1 0 1.8-.8 1.8-1.8S31 33 30 33h-3.9v-4h5.8c2.3-.1 2.3-3.4 0-3.5h-7.5c-1 0-1.8.8-1.8 1.8v15.1c0 .9.8 1.7 1.8 1.7z"/></svg>