<?xml version="1.0" encoding="utf-8"?>
<!-- Generator: Adobe Illustrator 25.2.3, SVG Export Plug-In . SVG Version: 6.00 Build 0)  -->
<svg version="1.1" id="Layer_1" xmlns="http://www.w3.org/2000/svg" xmlns:xlink="http://www.w3.org/1999/xlink" x="0px" y="0px"
	 viewBox="0 0 60 60" style="enable-background:new 0 0 60 60;" xml:space="preserve">
<path d="M37,0c5.5,0,10,4.5,10,10c-0.1,1.1-1.1,1.9-2.2,1.8c-1-0.1-1.7-0.8-1.8-1.8c0-3.3-2.7-6-6-6H10c-3.3,0-6,2.7-6,6v40
	c0,3.3,2.7,6,6,6h27c3.3,0,6-2.7,6-6c0-1.1,0.9-2,2-2c1.1,0,2,0.9,2,2c0,5.5-4.5,10-10,10H10C4.5,60,0,55.5,0,50V10
	C0,4.5,4.5,0,10,0H37z M28,48c1.1-0.1,2.1,0.7,2.2,1.8c0.1,1.1-0.7,2.1-1.8,2.2c-0.1,0-0.3,0-0.4,0h-8c-1.1,0.1-2.1-0.7-2.2-1.8
	c-0.1-1.1,0.7-2.1,1.8-2.2c0.1,0,0.3,0,0.4,0H28z M48.1,15.4c0.7-0.9,1.9-1,2.8-0.3c0.4,0.3,0.7,0.8,0.7,1.3l1.9,5.7H56
	c2.2,0,4,1.8,4,4V37c0,4.4-3.6,8-8,8H38c-4.4,0-8-3.6-8-8l0,0V26.1c0-2.2,1.8-4,4-4h2.5l1.9-5.7c0.5-1,1.7-1.3,2.7-0.8
	c0.8,0.4,1.2,1.2,1,2.1l-1.5,4.5h8.7l-1.5-4.5C47.5,16.9,47.6,16.1,48.1,15.4L48.1,15.4z M56,26.1H34v11c0,2.2,1.8,4,4,4h14
	c2.2,0,4-1.8,4-4C56,37.1,56,26.1,56,26.1z M14,8c1.1,0.1,1.9,1.1,1.8,2.2c-0.1,1-0.8,1.7-1.8,1.8h-4c-1.1-0.1-1.9-1.1-1.8-2.2
	C8.3,8.9,9,8.1,10,8H14z"/>
</svg>
