<svg xmlns="http://www.w3.org/2000/svg" xml:space="preserve" style="enable-background:new 0 0 60 60" viewBox="0 0 60 60"><path class="svg__ico" d="M44.9 15h-2.7v-2.3c0-7-5.7-12.7-12.7-12.7-7 0-12.7 5.7-12.7 12.7V15H14c-3.8 0-7 3.2-7 7.1V46c0 7.7 6.3 14 14.1 14H38c7.7 0 14-6.3 14-14.1V22.1c0-3.9-3.2-7.1-7.1-7.1zM21 12.7c0-4.7 3.8-8.5 8.5-8.5S38 8 38 12.7V15H21v-2.3zm26.9 33.2c0 5.5-4.4 9.9-9.9 9.9H21.1c-5.5 0-9.9-4.4-9.9-9.9V22.1c0-1.6 1.3-2.9 3-3H45c1.6 0 2.9 1.3 3 3l-.1 23.8zm-7.7-23.3c-1.1 0-2.1.9-2.1 2.1V29c0 4.7-3.8 8.5-8.5 8.5s-8.5-3.8-8.5-8.5v-4.4c0-1.1-.9-2.1-2.1-2.1-1.1 0-2.1.9-2.1 2.1V29c0 7 5.7 12.7 12.7 12.7 7 0 12.7-5.7 12.7-12.7v-4.4c-.1-1.1-1-2-2.1-2z"/></svg>