<?xml version="1.0" encoding="utf-8"?>
<!-- Generator: Adobe Illustrator 25.2.3, SVG Export Plug-In . SVG Version: 6.00 Build 0)  -->
<svg version="1.1" id="Layer_1" xmlns="http://www.w3.org/2000/svg" xmlns:xlink="http://www.w3.org/1999/xlink" x="0px" y="0px"
	 viewBox="0 0 60 60" style="enable-background:new 0 0 60 60;" xml:space="preserve">
<path d="M10,0c3.3,0,6,2.7,6,6h28c0-3.3,2.7-6,6-6h4c3.3,0,6,2.7,6,6v4c0,3.3-2.7,6-6,6v28c3.3,0,6,2.7,6,6v4c0,3.3-2.7,6-6,6h-4
	c-3.3,0-6-2.7-6-6H16c0,3.3-2.7,6-6,6H6c-3.3,0-6-2.7-6-6v-4c0-3.3,2.7-6,6-6V16c-3.3,0-6-2.7-6-6V6c0-3.3,2.7-6,6-6H10z M10,48H6
	c-1.1,0-2,0.9-2,2l0,0v4c0,1.1,0.9,2,2,2h0h4c1.1,0,2-0.9,2-2l0,0v-4C12,48.9,11.1,48,10,48L10,48z M54,48h-4c-1.1,0-2,0.9-2,2l0,0
	v4c0,1.1,0.9,2,2,2h4c1.1,0,2-0.9,2-2l0,0v-4C56,48.9,55.1,48,54,48L54,48z M44,10H16c0,3.3-2.7,6-6,6v28c3.3,0,6,2.7,6,6h28
	c0-3.3,2.7-6,6-6V16C46.7,16,44,13.3,44,10z M36.9,17c1.2-0.3,2.5-0.1,3.5,0.7c1,0.8,1.6,1.9,1.6,3.2v14.7c0,2.2-1.8,4-4,4
	c-0.4,0-0.7-0.1-1.1-0.2l-9.2-2.6v4.4h-4v-5.4l-2.8-0.8C19.2,34.4,18,32.8,18,31v-5.6c0-1.8,1.2-3.4,2.9-3.8L36.9,17z M38,20.8
	l-16,4.6v5.5l16,4.6V20.8L38,20.8z M54,4h-4c-1.1,0-2,0.9-2,2v0v4c0,1.1,0.9,2,2,2h4c1.1,0,2-0.9,2-2v0V6C56,4.9,55.1,4,54,4L54,4z
	 M10,4H6C4.9,4,4,4.9,4,6l0,0v4c0,1.1,0.9,2,2,2h0h4c1.1,0,2-0.9,2-2l0,0V6C12,4.9,11.1,4,10,4C10,4,10,4,10,4z"/>
</svg>
