<svg xmlns="http://www.w3.org/2000/svg" xml:space="preserve" style="enable-background:new 0 0 60 60" viewBox="0 0 60 60"><path class="svg__ico" d="M60 10.5v39.1C60 55.3 55.3 60 49.5 60h-39C4.7 60 0 55.3 0 49.5v-39C0 4.7 4.7 0 10.5 0h39.1C55.3 0 60 4.7 60 10.5zm-4.2 0c0-3.5-2.8-6.3-6.3-6.3h-39C7 4.2 4.2 7 4.2 10.5v39.1c0 3.5 2.8 6.3 6.3 6.3h39.1c3.5 0 6.3-2.8 6.3-6.3V10.5zM42.6 9.1c3.9 0 7 3.1 7 7 0 3-1.9 5.5-4.5 6.5-.3 1.9-1.1 4.1-2.9 6-1.8 1.8-4.3 2.9-6.9 2.9h-9.4c-3.3 0-6.1 2.6-6.3 5.9 2.8.9 4.9 3.5 4.9 6.7 0 3.9-3.1 7-7 7s-7-3.1-7-7c0-3.1 2.1-5.8 4.9-6.7.2-5.6 4.8-10.1 10.5-10.1h9.4c1.5 0 2.9-.6 3.9-1.6.9-.9 1.3-1.9 1.5-2.8-3-.8-5.1-3.5-5.1-6.7 0-4 3.1-7.1 7-7.1zm7 29.2c.8.8.8 2.1 0 3L46.9 44l2.7 2.7c.8.8.8 2.1 0 3-.8.8-2.1.8-3 0L44 46.9l-2.7 2.7c-.8.8-2.1.8-3 0-.8-.8-.8-2.1 0-3L41 44l-2.7-2.7c-.8-.8-.8-2.1 0-3 .8-.8 2.1-.8 3 0L44 41l2.7-2.7c.8-.8 2.1-.8 2.9 0zm-32.2 2.9c-1.5 0-2.8 1.3-2.8 2.8 0 1.5 1.3 2.8 2.8 2.8s2.8-1.3 2.8-2.8c0-1.6-1.2-2.8-2.8-2.8zm4.3-30.8c.8.8.8 2.1 0 3L19 16l2.7 2.7c.8.8.8 2.1 0 3-.8.8-2.1.8-3 0L16 19l-2.7 2.7c-.8.8-2.1.8-3 0-.8-.8-.8-2.1 0-3L13 16l-2.7-2.7c-.8-.8-.8-2.1 0-3 .8-.8 2.1-.8 3 0L16 13l2.7-2.7c.9-.7 2.2-.7 3 .1zm20.9 2.9c-1.5 0-2.8 1.3-2.8 2.8 0 1.5 1.3 2.8 2.8 2.8s2.8-1.3 2.8-2.8c-.1-1.6-1.3-2.8-2.8-2.8z" style="fill-rule:evenodd;clip-rule:evenodd"/></svg>