<svg xmlns="http://www.w3.org/2000/svg" xml:space="preserve" style="enable-background:new 0 0 60 60" viewBox="0 0 60 60"><path class="svg__ico" d="M53.1 58H6.9C3.1 58 0 54.9 0 51.1V9.9C0 6.1 3.1 3 6.9 3h46.2C56.9 3 60 6.1 60 9.9v41.2c0 3.8-3.1 6.9-6.9 6.9zM6.9 6.8c-1.7 0-3.1 1.4-3.1 3.1v41.2c0 1.7 1.4 3.1 3.1 3.1h46.2c1.7 0 3.1-1.4 3.1-3.1V9.9c0-1.7-1.4-3.1-3.1-3.1H6.9zm23.7 23.7c-1 0-1.9-.8-1.9-1.9v-1.9H11.2v1.9c0 1-.8 1.9-1.9 1.9s-1.9-.8-1.9-1.9v-3.8c0-1 .8-1.9 1.9-1.9h21.2c1 0 1.9.8 1.9 1.9v3.8c.1 1.1-.7 1.9-1.8 1.9zM20 47.4c-1 0-1.9-.8-1.9-1.9v-20c0-1 .8-1.9 1.9-1.9s1.9.8 1.9 1.9v20c0 1-.9 1.9-1.9 1.9zm3.1.6h-6.2c-1 0-1.9-.8-1.9-1.9s.8-1.9 1.9-1.9h6.2c1 0 1.9.8 1.9 1.9s-.8 1.9-1.9 1.9zm27.5-21.2H39.4c-1 0-1.9-.8-1.9-1.9s.8-1.9 1.9-1.9h11.2c1 0 1.9.8 1.9 1.9s-.8 1.9-1.9 1.9zm0 10H39.4c-1 0-1.9-.8-1.9-1.9s.8-1.9 1.9-1.9h11.2c1 0 1.9.8 1.9 1.9s-.8 1.9-1.9 1.9zm0 10H39.4c-1 0-1.9-.8-1.9-1.9s.8-1.9 1.9-1.9h11.2c1 0 1.9.8 1.9 1.9s-.8 1.9-1.9 1.9zm7.5-31.3H1.9c-1 0-1.9-.8-1.9-1.9s.8-1.9 1.9-1.9h56.2c1 0 1.9.8 1.9 1.9s-.8 1.9-1.9 1.9z"/></svg>