<svg xmlns="http://www.w3.org/2000/svg" xml:space="preserve" style="enable-background:new 0 0 60 60" viewBox="0 0 60 60"><path class="svg__ico" d="M53.9 17.8v1.6c0 16.3-12.4 35-35 35-6.7 0-13.2-1.9-18.9-5.5 6.5.8 13.1-1.1 18.2-5.1-5.3-.1-9.9-3.5-11.5-8.5 1.8.4 3.7.3 5.6-.2-5.7-1.2-9.9-6.2-9.9-12.1v-.2c1.7 1 3.6 1.5 5.6 1.5C2.6 20.7.9 13.5 4.2 7.9c6.3 7.7 15.5 12.4 25.4 12.9-1.6-6.7 2.6-13.3 9.2-14.9 4.3-1 8.7.4 11.7 3.6 2.8-.5 5.4-1.6 7.8-3-.9 2.9-2.8 5.3-5.4 6.8 2.4-.3 4.8-.9 7.1-1.9-1.7 2.5-3.7 4.6-6.1 6.4z"/></svg>