<svg xmlns="http://www.w3.org/2000/svg" xml:space="preserve" style="enable-background:new 0 0 60 60" viewBox="0 0 60 60"><path class="svg__ico" d="M60 7.7c0-2-.8-4-2.2-5.4C56.3.8 54.4 0 52.3 0H7.6c-2 0-4 .8-5.4 2.2C.8 3.7 0 5.6 0 7.7v44.7c0 2 .8 4 2.2 5.4C3.7 59.2 5.6 60 7.7 60h44.7c2 0 4-.8 5.4-2.2 1.4-1.4 2.2-3.4 2.2-5.4V7.7zm-4.2 0v44.7c0 .9-.4 1.8-1 2.5-.7.7-1.5 1-2.5 1H7.7c-.9 0-1.8-.4-2.5-1-.7-.7-1-1.5-1-2.5V7.7c0-.9.4-1.8 1-2.5.7-.7 1.5-1 2.5-1h44.7c.9 0 1.8.4 2.5 1 .5.7.9 1.5.9 2.5zM4.2 18.1h51.6V14H4.2v4.1zm4.9-6.9h2.8c1.2 0 2.1-.9 2.1-2.1C14 7.9 13 7 11.9 7H9.1C7.9 7 7 7.9 7 9.1c0 1.1.9 2.1 2.1 2.1zm9.7 0h2.8c1.2 0 2.1-.9 2.1-2.1 0-1.2-.9-2.1-2.1-2.1h-2.8c-1.2 0-2.1.9-2.1 2.1 0 1.1 1 2.1 2.1 2.1zm9.8 0h2.8c1.2 0 2.1-.9 2.1-2.1 0-1.2-.9-2.1-2.1-2.1h-2.8c-1.2 0-2.1.9-2.1 2.1 0 1.1.9 2.1 2.1 2.1zM13.3 29.3h14c1.2 0 2.1-.9 2.1-2.1 0-1.2-.9-2.1-2.1-2.1h-14c-1.2 0-2.1.9-2.1 2.1 0 1.2.9 2.1 2.1 2.1zm0 11.2h20.9c1.2 0 2.1-.9 2.1-2.1s-.9-2.1-2.1-2.1H13.3c-1.2 0-2.1.9-2.1 2.1s.9 2.1 2.1 2.1zm27.9 0H44c1.2 0 2.1-.9 2.1-2.1s-.9-2.1-2.1-2.1h-2.8c-1.2 0-2.1.9-2.1 2.1s.9 2.1 2.1 2.1zm-27.9 8.3H44c1.2 0 2.1-.9 2.1-2.1s-.9-2.1-2.1-2.1H13.3c-1.2 0-2.1.9-2.1 2.1s.9 2.1 2.1 2.1z" style="fill-rule:evenodd;clip-rule:evenodd"/></svg>